<svg width="312" height="24" viewBox="0 0 312 24" fill="none" xmlns="http://www.w3.org/2000/svg">
<path d="M6.62109 6.30664V7.53711C6.62109 7.70638 6.60156 7.8431 6.5625 7.94727C6.52995 8.05143 6.47461 8.13281 6.39648 8.19141C6.32487 8.25 6.23047 8.28906 6.11328 8.30859C6.0026 8.32812 5.86914 8.33789 5.71289 8.33789C5.55664 8.33789 5.42318 8.32812 5.3125 8.30859C5.20182 8.28906 5.11068 8.25 5.03906 8.19141C4.96745 8.13281 4.91211 8.05143 4.87305 7.94727C4.84049 7.8431 4.82422 7.70638 4.82422 7.53711C4.82422 7.3418 4.83398 7.16276 4.85352 7C4.87305 6.83073 4.90234 6.67122 4.94141 6.52148C4.98698 6.37174 5.04557 6.22526 5.11719 6.08203C5.19531 5.93229 5.28646 5.77604 5.39062 5.61328L6.70898 3.61133C6.74154 3.55924 6.77734 3.51693 6.81641 3.48438C6.85547 3.45182 6.9043 3.42578 6.96289 3.40625C7.02148 3.38021 7.08984 3.36068 7.16797 3.34766C7.2526 3.33464 7.35352 3.32812 7.4707 3.32812C7.57487 3.32812 7.66276 3.33464 7.73438 3.34766C7.80599 3.35417 7.85807 3.37044 7.89062 3.39648C7.92318 3.41602 7.93945 3.44531 7.93945 3.48438C7.94596 3.52344 7.93294 3.56901 7.90039 3.62109L6.62109 6.30664ZM3.125 6.30664V7.53711C3.125 7.70638 3.10547 7.8431 3.06641 7.94727C3.03385 8.05143 2.97852 8.13281 2.90039 8.19141C2.82878 8.25 2.73438 8.28906 2.61719 8.30859C2.50651 8.32812 2.37305 8.33789 2.2168 8.33789C2.06055 8.33789 1.92708 8.32812 1.81641 8.30859C1.70573 8.28906 1.61458 8.25 1.54297 8.19141C1.47135 8.13281 1.41602 8.05143 1.37695 7.94727C1.3444 7.8431 1.32812 7.70638 1.32812 7.53711C1.32812 7.3418 1.33789 7.16276 1.35742 7C1.37695 6.83073 1.40625 6.67122 1.44531 6.52148C1.49089 6.37174 1.54948 6.22526 1.62109 6.08203C1.69922 5.93229 1.79036 5.77604 1.89453 5.61328L3.21289 3.61133C3.24544 3.55924 3.28125 3.51693 3.32031 3.48438C3.35938 3.45182 3.4082 3.42578 3.4668 3.40625C3.52539 3.38021 3.59375 3.36068 3.67188 3.34766C3.75651 3.33464 3.85742 3.32812 3.97461 3.32812C4.07878 3.32812 4.16341 3.33464 4.22852 3.34766C4.30013 3.35417 4.35221 3.37044 4.38477 3.39648C4.42383 3.41602 4.44336 3.44531 4.44336 3.48438C4.44336 3.52344 4.43034 3.56901 4.4043 3.62109L3.125 6.30664ZM19.7754 10.4961C19.7754 11.5898 19.6354 12.5469 19.3555 13.3672C19.0755 14.181 18.6654 14.8581 18.125 15.3984C17.5911 15.9323 16.9336 16.3327 16.1523 16.5996C15.3711 16.8665 14.4401 17 13.3594 17H10.6836C10.5339 17 10.3906 16.9512 10.2539 16.8535C10.1237 16.7493 10.0586 16.5703 10.0586 16.3164V5.04688C10.0586 4.79297 10.1237 4.61719 10.2539 4.51953C10.3906 4.41536 10.5339 4.36328 10.6836 4.36328H13.5449C14.6387 4.36328 15.5632 4.50651 16.3184 4.79297C17.0736 5.07292 17.7051 5.47982 18.2129 6.01367C18.7272 6.54102 19.1146 7.18229 19.375 7.9375C19.6419 8.69271 19.7754 9.54557 19.7754 10.4961ZM18.0078 10.5645C18.0078 9.88086 17.9232 9.24609 17.7539 8.66016C17.5846 8.06771 17.3177 7.55664 16.9531 7.12695C16.5951 6.69727 16.1393 6.36198 15.5859 6.12109C15.0326 5.88021 14.3197 5.75977 13.4473 5.75977H11.7383V15.5938H13.4668C14.2741 15.5938 14.9544 15.4928 15.5078 15.291C16.0612 15.0892 16.5234 14.7799 16.8945 14.3633C17.2656 13.9466 17.5423 13.4258 17.7246 12.8008C17.9134 12.1693 18.0078 11.4238 18.0078 10.5645ZM30.3516 12.2637C30.3516 12.9798 30.2572 13.6406 30.0684 14.2461C29.8796 14.8451 29.5964 15.3626 29.2188 15.7988C28.8477 16.235 28.3789 16.5768 27.8125 16.8242C27.2526 17.0651 26.6016 17.1855 25.8594 17.1855C25.1367 17.1855 24.5052 17.0781 23.9648 16.8633C23.431 16.6484 22.985 16.3359 22.627 15.9258C22.2689 15.5156 22.002 15.0176 21.8262 14.4316C21.6504 13.8457 21.5625 13.1816 21.5625 12.4395C21.5625 11.7233 21.6536 11.0658 21.8359 10.4668C22.0247 9.86133 22.3047 9.34049 22.6758 8.9043C23.0534 8.4681 23.5221 8.12956 24.082 7.88867C24.6419 7.64779 25.2962 7.52734 26.0449 7.52734C26.7676 7.52734 27.3958 7.63477 27.9297 7.84961C28.4701 8.06445 28.9193 8.37695 29.2773 8.78711C29.6354 9.19727 29.9023 9.69531 30.0781 10.2812C30.2604 10.8672 30.3516 11.528 30.3516 12.2637ZM28.6523 12.3711C28.6523 11.8958 28.6068 11.4466 28.5156 11.0234C28.431 10.6003 28.2878 10.2292 28.0859 9.91016C27.8841 9.59115 27.6107 9.34049 27.2656 9.1582C26.9206 8.9694 26.4909 8.875 25.9766 8.875C25.5013 8.875 25.0911 8.95964 24.7461 9.12891C24.4076 9.29818 24.1276 9.53906 23.9062 9.85156C23.6849 10.1576 23.5189 10.5221 23.4082 10.9453C23.304 11.3685 23.252 11.8307 23.252 12.332C23.252 12.8138 23.2943 13.2663 23.3789 13.6895C23.4701 14.1126 23.6165 14.4837 23.8184 14.8027C24.0267 15.1152 24.3034 15.3659 24.6484 15.5547C24.9935 15.737 25.4232 15.8281 25.9375 15.8281C26.4062 15.8281 26.8132 15.7435 27.1582 15.5742C27.5033 15.4049 27.7865 15.1673 28.0078 14.8613C28.2292 14.5553 28.3919 14.1908 28.4961 13.7676C28.6003 13.3444 28.6523 12.8789 28.6523 12.3711ZM38.8672 16.7559C38.8672 16.8079 38.8542 16.8535 38.8281 16.8926C38.8021 16.9251 38.7598 16.9544 38.7012 16.9805C38.6426 17.0065 38.5612 17.026 38.457 17.0391C38.3529 17.0521 38.2194 17.0586 38.0566 17.0586C37.9004 17.0586 37.7702 17.0521 37.666 17.0391C37.5618 17.026 37.4772 17.0065 37.4121 16.9805C37.3535 16.9544 37.3112 16.9251 37.2852 16.8926C37.2656 16.8535 37.2559 16.8079 37.2559 16.7559V7.9668C37.2559 7.92122 37.2656 7.87891 37.2852 7.83984C37.3112 7.80078 37.3535 7.76823 37.4121 7.74219C37.4772 7.71615 37.5618 7.69661 37.666 7.68359C37.7702 7.67057 37.9004 7.66406 38.0566 7.66406C38.2194 7.66406 38.3529 7.67057 38.457 7.68359C38.5612 7.69661 38.6426 7.71615 38.7012 7.74219C38.7598 7.76823 38.8021 7.80078 38.8281 7.83984C38.8542 7.87891 38.8672 7.92122 38.8672 7.9668V16.7559ZM39.0527 4.99805C39.0527 5.37565 38.9811 5.63281 38.8379 5.76953C38.6947 5.90625 38.431 5.97461 38.0469 5.97461C37.6693 5.97461 37.4089 5.90951 37.2656 5.7793C37.1289 5.64258 37.0605 5.38867 37.0605 5.01758C37.0605 4.63997 37.1322 4.38281 37.2754 4.24609C37.4186 4.10938 37.6823 4.04102 38.0664 4.04102C38.444 4.04102 38.7012 4.10938 38.8379 4.24609C38.9811 4.3763 39.0527 4.62695 39.0527 4.99805ZM46.416 16.1113C46.416 16.3001 46.403 16.4499 46.377 16.5605C46.3509 16.6712 46.3118 16.7526 46.2598 16.8047C46.2077 16.8568 46.1296 16.9056 46.0254 16.9512C45.9212 16.9967 45.8008 17.0326 45.6641 17.0586C45.5339 17.0911 45.3939 17.1172 45.2441 17.1367C45.0944 17.1562 44.9447 17.166 44.7949 17.166C44.3392 17.166 43.9486 17.1074 43.623 16.9902C43.2975 16.8665 43.0306 16.6842 42.8223 16.4434C42.6139 16.196 42.4609 15.8867 42.3633 15.5156C42.2721 15.138 42.2266 14.6953 42.2266 14.1875V9.05078H40.9961C40.8984 9.05078 40.8203 8.9987 40.7617 8.89453C40.7031 8.79036 40.6738 8.62109 40.6738 8.38672C40.6738 8.26302 40.6803 8.15885 40.6934 8.07422C40.7129 7.98958 40.7357 7.92122 40.7617 7.86914C40.7878 7.81055 40.8203 7.77148 40.8594 7.75195C40.9049 7.72591 40.9538 7.71289 41.0059 7.71289H42.2266V5.62305C42.2266 5.57747 42.2363 5.53516 42.2559 5.49609C42.2819 5.45703 42.3242 5.42448 42.3828 5.39844C42.4479 5.36589 42.5326 5.3431 42.6367 5.33008C42.7409 5.31706 42.8711 5.31055 43.0273 5.31055C43.1901 5.31055 43.3236 5.31706 43.4277 5.33008C43.5319 5.3431 43.6133 5.36589 43.6719 5.39844C43.7305 5.42448 43.7728 5.45703 43.7988 5.49609C43.8249 5.53516 43.8379 5.57747 43.8379 5.62305V7.71289H46.0938C46.1458 7.71289 46.1914 7.72591 46.2305 7.75195C46.2695 7.77148 46.3021 7.81055 46.3281 7.86914C46.3607 7.92122 46.3835 7.98958 46.3965 8.07422C46.4095 8.15885 46.416 8.26302 46.416 8.38672C46.416 8.62109 46.3867 8.79036 46.3281 8.89453C46.2695 8.9987 46.1914 9.05078 46.0938 9.05078H43.8379V13.9531C43.8379 14.5586 43.9258 15.0176 44.1016 15.3301C44.2839 15.6361 44.6061 15.7891 45.0684 15.7891C45.2181 15.7891 45.3516 15.776 45.4688 15.75C45.5859 15.7174 45.6901 15.6849 45.7812 15.6523C45.8724 15.6198 45.9505 15.5905 46.0156 15.5645C46.0807 15.5319 46.1393 15.5156 46.1914 15.5156C46.224 15.5156 46.2533 15.5254 46.2793 15.5449C46.3118 15.5579 46.3346 15.5872 46.3477 15.6328C46.3672 15.6784 46.3835 15.7402 46.3965 15.8184C46.4095 15.8965 46.416 15.9941 46.416 16.1113ZM114.971 16.7656C114.971 16.8438 114.945 16.9023 114.893 16.9414C114.84 16.9805 114.769 17.0098 114.678 17.0293C114.587 17.0488 114.453 17.0586 114.277 17.0586C114.108 17.0586 113.971 17.0488 113.867 17.0293C113.77 17.0098 113.698 16.9805 113.652 16.9414C113.607 16.9023 113.584 16.8438 113.584 16.7656V15.8867C113.2 16.2969 112.77 16.6159 112.295 16.8438C111.826 17.0716 111.328 17.1855 110.801 17.1855C110.339 17.1855 109.919 17.1237 109.541 17C109.17 16.8828 108.851 16.7103 108.584 16.4824C108.324 16.2546 108.118 15.9746 107.969 15.6426C107.826 15.3105 107.754 14.9329 107.754 14.5098C107.754 14.015 107.855 13.5853 108.057 13.2207C108.258 12.8561 108.548 12.5534 108.926 12.3125C109.303 12.0716 109.766 11.8926 110.312 11.7754C110.859 11.6517 111.475 11.5898 112.158 11.5898H113.369V10.9062C113.369 10.5677 113.333 10.2682 113.262 10.0078C113.19 9.7474 113.073 9.53255 112.91 9.36328C112.754 9.1875 112.549 9.05729 112.295 8.97266C112.041 8.88151 111.729 8.83594 111.357 8.83594C110.96 8.83594 110.602 8.88477 110.283 8.98242C109.971 9.07357 109.694 9.17773 109.453 9.29492C109.219 9.4056 109.02 9.50977 108.857 9.60742C108.701 9.69857 108.584 9.74414 108.506 9.74414C108.454 9.74414 108.408 9.73112 108.369 9.70508C108.33 9.67904 108.294 9.63997 108.262 9.58789C108.236 9.53581 108.216 9.4707 108.203 9.39258C108.19 9.30794 108.184 9.2168 108.184 9.11914C108.184 8.95638 108.193 8.82943 108.213 8.73828C108.239 8.64062 108.294 8.54948 108.379 8.46484C108.47 8.38021 108.623 8.28255 108.838 8.17188C109.053 8.05469 109.3 7.95052 109.58 7.85938C109.86 7.76172 110.166 7.68359 110.498 7.625C110.83 7.5599 111.165 7.52734 111.504 7.52734C112.135 7.52734 112.673 7.59896 113.115 7.74219C113.558 7.88542 113.916 8.09701 114.189 8.37695C114.463 8.65039 114.661 8.99219 114.785 9.40234C114.909 9.8125 114.971 10.291 114.971 10.8379V16.7656ZM113.369 12.752H111.992C111.549 12.752 111.165 12.791 110.84 12.8691C110.514 12.9408 110.244 13.0514 110.029 13.2012C109.814 13.3444 109.655 13.5202 109.551 13.7285C109.453 13.9303 109.404 14.1647 109.404 14.4316C109.404 14.8874 109.548 15.252 109.834 15.5254C110.127 15.7923 110.534 15.9258 111.055 15.9258C111.478 15.9258 111.868 15.8184 112.227 15.6035C112.591 15.3887 112.972 15.0599 113.369 14.6172V12.752ZM125.508 16.7559C125.508 16.8079 125.495 16.8535 125.469 16.8926C125.443 16.9251 125.4 16.9544 125.342 16.9805C125.283 17.0065 125.202 17.026 125.098 17.0391C124.993 17.0521 124.863 17.0586 124.707 17.0586C124.544 17.0586 124.411 17.0521 124.307 17.0391C124.202 17.026 124.121 17.0065 124.062 16.9805C124.004 16.9544 123.962 16.9251 123.936 16.8926C123.91 16.8535 123.896 16.8079 123.896 16.7559V11.6094C123.896 11.1081 123.857 10.7044 123.779 10.3984C123.701 10.0924 123.587 9.82878 123.438 9.60742C123.288 9.38607 123.092 9.2168 122.852 9.09961C122.617 8.98242 122.344 8.92383 122.031 8.92383C121.628 8.92383 121.224 9.06706 120.82 9.35352C120.417 9.63997 119.993 10.0599 119.551 10.6133V16.7559C119.551 16.8079 119.538 16.8535 119.512 16.8926C119.486 16.9251 119.443 16.9544 119.385 16.9805C119.326 17.0065 119.245 17.026 119.141 17.0391C119.036 17.0521 118.903 17.0586 118.74 17.0586C118.584 17.0586 118.454 17.0521 118.35 17.0391C118.245 17.026 118.161 17.0065 118.096 16.9805C118.037 16.9544 117.995 16.9251 117.969 16.8926C117.949 16.8535 117.939 16.8079 117.939 16.7559V7.9668C117.939 7.91471 117.949 7.8724 117.969 7.83984C117.988 7.80078 118.027 7.76823 118.086 7.74219C118.145 7.70964 118.219 7.6901 118.311 7.68359C118.402 7.67057 118.522 7.66406 118.672 7.66406C118.815 7.66406 118.932 7.67057 119.023 7.68359C119.121 7.6901 119.196 7.70964 119.248 7.74219C119.3 7.76823 119.336 7.80078 119.355 7.83984C119.382 7.8724 119.395 7.91471 119.395 7.9668V9.12891C119.889 8.57552 120.381 8.17188 120.869 7.91797C121.364 7.65755 121.862 7.52734 122.363 7.52734C122.949 7.52734 123.441 7.62826 123.838 7.83008C124.242 8.02539 124.567 8.28906 124.814 8.62109C125.062 8.95312 125.238 9.34375 125.342 9.79297C125.452 10.2357 125.508 10.7695 125.508 11.3945V16.7559ZM135.977 16.7559C135.977 16.8079 135.964 16.8535 135.938 16.8926C135.918 16.9316 135.879 16.9642 135.82 16.9902C135.768 17.0098 135.697 17.026 135.605 17.0391C135.514 17.0521 135.404 17.0586 135.273 17.0586C135.137 17.0586 135.023 17.0521 134.932 17.0391C134.84 17.026 134.766 17.0098 134.707 16.9902C134.648 16.9642 134.606 16.9316 134.58 16.8926C134.554 16.8535 134.541 16.8079 134.541 16.7559V15.5938C134.079 16.0951 133.597 16.4857 133.096 16.7656C132.601 17.0456 132.057 17.1855 131.465 17.1855C130.82 17.1855 130.27 17.0618 129.814 16.8145C129.359 16.5605 128.988 16.222 128.701 15.7988C128.421 15.3691 128.216 14.8678 128.086 14.2949C127.956 13.7155 127.891 13.1068 127.891 12.4688C127.891 11.7135 127.972 11.0332 128.135 10.4277C128.298 9.81576 128.538 9.29492 128.857 8.86523C129.176 8.43555 129.57 8.10677 130.039 7.87891C130.514 7.64453 131.061 7.52734 131.68 7.52734C132.194 7.52734 132.663 7.64128 133.086 7.86914C133.516 8.09049 133.939 8.41927 134.355 8.85547V3.74805C134.355 3.70247 134.365 3.66016 134.385 3.62109C134.411 3.57552 134.456 3.54297 134.521 3.52344C134.587 3.4974 134.668 3.47786 134.766 3.46484C134.87 3.44531 135 3.43555 135.156 3.43555C135.319 3.43555 135.452 3.44531 135.557 3.46484C135.661 3.47786 135.742 3.4974 135.801 3.52344C135.859 3.54297 135.902 3.57552 135.928 3.62109C135.96 3.66016 135.977 3.70247 135.977 3.74805V16.7559ZM134.355 10.5742C133.919 10.0339 133.496 9.6237 133.086 9.34375C132.682 9.05729 132.259 8.91406 131.816 8.91406C131.406 8.91406 131.058 9.01172 130.771 9.20703C130.485 9.40234 130.251 9.65951 130.068 9.97852C129.893 10.2975 129.762 10.6589 129.678 11.0625C129.6 11.4661 129.561 11.8763 129.561 12.293C129.561 12.7357 129.593 13.1686 129.658 13.5918C129.73 14.015 129.85 14.3926 130.02 14.7246C130.189 15.0501 130.413 15.3138 130.693 15.5156C130.973 15.7109 131.325 15.8086 131.748 15.8086C131.963 15.8086 132.168 15.7793 132.363 15.7207C132.565 15.6621 132.77 15.5645 132.979 15.4277C133.187 15.291 133.405 15.1152 133.633 14.9004C133.861 14.679 134.102 14.4089 134.355 14.0898V10.5742ZM207.812 7.94727C207.812 7.99284 207.806 8.04818 207.793 8.11328C207.78 8.17839 207.757 8.25977 207.725 8.35742L205.137 16.707C205.117 16.7786 205.085 16.8372 205.039 16.8828C205 16.9284 204.941 16.9642 204.863 16.9902C204.792 17.0163 204.691 17.0326 204.561 17.0391C204.43 17.0521 204.268 17.0586 204.072 17.0586C203.87 17.0586 203.701 17.0521 203.564 17.0391C203.428 17.026 203.317 17.0065 203.232 16.9805C203.154 16.9544 203.096 16.9186 203.057 16.873C203.018 16.8275 202.988 16.7721 202.969 16.707L201.123 10.3301L201.104 10.2422L201.084 10.3301L199.375 16.707C199.355 16.7786 199.323 16.8372 199.277 16.8828C199.238 16.9284 199.176 16.9642 199.092 16.9902C199.007 17.0163 198.896 17.0326 198.76 17.0391C198.63 17.0521 198.467 17.0586 198.271 17.0586C198.07 17.0586 197.904 17.0521 197.773 17.0391C197.65 17.026 197.546 17.0065 197.461 16.9805C197.383 16.9544 197.324 16.9186 197.285 16.873C197.246 16.8275 197.217 16.7721 197.197 16.707L194.629 8.35742C194.596 8.25977 194.574 8.17839 194.561 8.11328C194.548 8.04818 194.541 7.99284 194.541 7.94727C194.541 7.88867 194.554 7.8431 194.58 7.81055C194.606 7.77148 194.648 7.74219 194.707 7.72266C194.772 7.69661 194.857 7.68034 194.961 7.67383C195.065 7.66732 195.192 7.66406 195.342 7.66406C195.524 7.66406 195.671 7.67057 195.781 7.68359C195.892 7.6901 195.977 7.70638 196.035 7.73242C196.094 7.75195 196.136 7.78451 196.162 7.83008C196.188 7.86914 196.211 7.91797 196.23 7.97656L198.35 15.2227L198.369 15.3105L198.389 15.2227L200.332 7.97656C200.345 7.91797 200.365 7.86914 200.391 7.83008C200.423 7.78451 200.469 7.75195 200.527 7.73242C200.586 7.70638 200.664 7.6901 200.762 7.68359C200.866 7.67057 200.999 7.66406 201.162 7.66406C201.318 7.66406 201.445 7.67057 201.543 7.68359C201.647 7.6901 201.729 7.70638 201.787 7.73242C201.846 7.75195 201.888 7.78125 201.914 7.82031C201.94 7.85938 201.96 7.90495 201.973 7.95703L204.072 15.2227L204.092 15.3105L204.102 15.2227L206.191 7.97656C206.204 7.91797 206.224 7.86914 206.25 7.83008C206.283 7.78451 206.328 7.75195 206.387 7.73242C206.452 7.70638 206.536 7.6901 206.641 7.68359C206.751 7.67057 206.891 7.66406 207.061 7.66406C207.217 7.66406 207.34 7.66732 207.432 7.67383C207.529 7.68034 207.604 7.69661 207.656 7.72266C207.715 7.7487 207.754 7.77799 207.773 7.81055C207.799 7.8431 207.812 7.88867 207.812 7.94727ZM211.426 16.7559C211.426 16.8079 211.413 16.8535 211.387 16.8926C211.361 16.9251 211.318 16.9544 211.26 16.9805C211.201 17.0065 211.12 17.026 211.016 17.0391C210.911 17.0521 210.778 17.0586 210.615 17.0586C210.459 17.0586 210.329 17.0521 210.225 17.0391C210.12 17.026 210.036 17.0065 209.971 16.9805C209.912 16.9544 209.87 16.9251 209.844 16.8926C209.824 16.8535 209.814 16.8079 209.814 16.7559V7.9668C209.814 7.92122 209.824 7.87891 209.844 7.83984C209.87 7.80078 209.912 7.76823 209.971 7.74219C210.036 7.71615 210.12 7.69661 210.225 7.68359C210.329 7.67057 210.459 7.66406 210.615 7.66406C210.778 7.66406 210.911 7.67057 211.016 7.68359C211.12 7.69661 211.201 7.71615 211.26 7.74219C211.318 7.76823 211.361 7.80078 211.387 7.83984C211.413 7.87891 211.426 7.92122 211.426 7.9668V16.7559ZM211.611 4.99805C211.611 5.37565 211.54 5.63281 211.396 5.76953C211.253 5.90625 210.99 5.97461 210.605 5.97461C210.228 5.97461 209.967 5.90951 209.824 5.7793C209.688 5.64258 209.619 5.38867 209.619 5.01758C209.619 4.63997 209.691 4.38281 209.834 4.24609C209.977 4.10938 210.241 4.04102 210.625 4.04102C211.003 4.04102 211.26 4.10938 211.396 4.24609C211.54 4.3763 211.611 4.62695 211.611 4.99805ZM218.975 16.1113C218.975 16.3001 218.962 16.4499 218.936 16.5605C218.91 16.6712 218.87 16.7526 218.818 16.8047C218.766 16.8568 218.688 16.9056 218.584 16.9512C218.48 16.9967 218.359 17.0326 218.223 17.0586C218.092 17.0911 217.952 17.1172 217.803 17.1367C217.653 17.1562 217.503 17.166 217.354 17.166C216.898 17.166 216.507 17.1074 216.182 16.9902C215.856 16.8665 215.589 16.6842 215.381 16.4434C215.173 16.196 215.02 15.8867 214.922 15.5156C214.831 15.138 214.785 14.6953 214.785 14.1875V9.05078H213.555C213.457 9.05078 213.379 8.9987 213.32 8.89453C213.262 8.79036 213.232 8.62109 213.232 8.38672C213.232 8.26302 213.239 8.15885 213.252 8.07422C213.271 7.98958 213.294 7.92122 213.32 7.86914C213.346 7.81055 213.379 7.77148 213.418 7.75195C213.464 7.72591 213.512 7.71289 213.564 7.71289H214.785V5.62305C214.785 5.57747 214.795 5.53516 214.814 5.49609C214.84 5.45703 214.883 5.42448 214.941 5.39844C215.007 5.36589 215.091 5.3431 215.195 5.33008C215.299 5.31706 215.43 5.31055 215.586 5.31055C215.749 5.31055 215.882 5.31706 215.986 5.33008C216.09 5.3431 216.172 5.36589 216.23 5.39844C216.289 5.42448 216.331 5.45703 216.357 5.49609C216.383 5.53516 216.396 5.57747 216.396 5.62305V7.71289H218.652C218.704 7.71289 218.75 7.72591 218.789 7.75195C218.828 7.77148 218.861 7.81055 218.887 7.86914C218.919 7.92122 218.942 7.98958 218.955 8.07422C218.968 8.15885 218.975 8.26302 218.975 8.38672C218.975 8.62109 218.945 8.79036 218.887 8.89453C218.828 8.9987 218.75 9.05078 218.652 9.05078H216.396V13.9531C216.396 14.5586 216.484 15.0176 216.66 15.3301C216.842 15.6361 217.165 15.7891 217.627 15.7891C217.777 15.7891 217.91 15.776 218.027 15.75C218.145 15.7174 218.249 15.6849 218.34 15.6523C218.431 15.6198 218.509 15.5905 218.574 15.5645C218.639 15.5319 218.698 15.5156 218.75 15.5156C218.783 15.5156 218.812 15.5254 218.838 15.5449C218.87 15.5579 218.893 15.5872 218.906 15.6328C218.926 15.6784 218.942 15.7402 218.955 15.8184C218.968 15.8965 218.975 15.9941 218.975 16.1113ZM228.672 16.7559C228.672 16.8079 228.659 16.8535 228.633 16.8926C228.607 16.9251 228.564 16.9544 228.506 16.9805C228.447 17.0065 228.366 17.026 228.262 17.0391C228.158 17.0521 228.027 17.0586 227.871 17.0586C227.708 17.0586 227.575 17.0521 227.471 17.0391C227.367 17.026 227.285 17.0065 227.227 16.9805C227.168 16.9544 227.126 16.9251 227.1 16.8926C227.074 16.8535 227.061 16.8079 227.061 16.7559V11.6094C227.061 11.1081 227.021 10.7044 226.943 10.3984C226.865 10.0924 226.751 9.82878 226.602 9.60742C226.452 9.38607 226.257 9.2168 226.016 9.09961C225.781 8.98242 225.508 8.92383 225.195 8.92383C224.792 8.92383 224.388 9.06706 223.984 9.35352C223.581 9.63997 223.158 10.0599 222.715 10.6133V16.7559C222.715 16.8079 222.702 16.8535 222.676 16.8926C222.65 16.9251 222.607 16.9544 222.549 16.9805C222.49 17.0065 222.409 17.026 222.305 17.0391C222.201 17.0521 222.067 17.0586 221.904 17.0586C221.748 17.0586 221.618 17.0521 221.514 17.0391C221.41 17.026 221.325 17.0065 221.26 16.9805C221.201 16.9544 221.159 16.9251 221.133 16.8926C221.113 16.8535 221.104 16.8079 221.104 16.7559V3.70898C221.104 3.6569 221.113 3.61133 221.133 3.57227C221.159 3.5332 221.201 3.50065 221.26 3.47461C221.325 3.44857 221.41 3.42904 221.514 3.41602C221.618 3.40299 221.748 3.39648 221.904 3.39648C222.067 3.39648 222.201 3.40299 222.305 3.41602C222.409 3.42904 222.49 3.44857 222.549 3.47461C222.607 3.50065 222.65 3.5332 222.676 3.57227C222.702 3.61133 222.715 3.6569 222.715 3.70898V8.97266C223.177 8.48438 223.643 8.12305 224.111 7.88867C224.58 7.64779 225.052 7.52734 225.527 7.52734C226.113 7.52734 226.605 7.62826 227.002 7.83008C227.406 8.02539 227.731 8.28906 227.979 8.62109C228.226 8.95312 228.402 9.34375 228.506 9.79297C228.617 10.2357 228.672 10.7728 228.672 11.4043V16.7559ZM245.4 16.668C245.4 16.7396 245.387 16.8014 245.361 16.8535C245.335 16.8991 245.273 16.9382 245.176 16.9707C245.078 17.0033 244.935 17.026 244.746 17.0391C244.557 17.0521 244.3 17.0586 243.975 17.0586C243.701 17.0586 243.483 17.0521 243.32 17.0391C243.158 17.026 243.027 17.0033 242.93 16.9707C242.839 16.9316 242.773 16.8861 242.734 16.834C242.695 16.7754 242.663 16.707 242.637 16.6289L241.504 13.8066C241.367 13.4876 241.234 13.2044 241.104 12.957C240.973 12.7096 240.827 12.5046 240.664 12.3418C240.508 12.1725 240.326 12.0456 240.117 11.9609C239.909 11.8763 239.668 11.834 239.395 11.834H238.594V16.6484C238.594 16.7135 238.571 16.7721 238.525 16.8242C238.486 16.8763 238.418 16.9186 238.32 16.9512C238.223 16.9837 238.092 17.0098 237.93 17.0293C237.767 17.0488 237.559 17.0586 237.305 17.0586C237.057 17.0586 236.849 17.0488 236.68 17.0293C236.517 17.0098 236.387 16.9837 236.289 16.9512C236.191 16.9186 236.123 16.8763 236.084 16.8242C236.045 16.7721 236.025 16.7135 236.025 16.6484V5.17383C236.025 4.88737 236.097 4.68229 236.24 4.55859C236.39 4.42839 236.572 4.36328 236.787 4.36328H240.059C240.391 4.36328 240.664 4.36979 240.879 4.38281C241.094 4.39583 241.289 4.41211 241.465 4.43164C241.973 4.50326 242.428 4.62695 242.832 4.80273C243.242 4.97852 243.587 5.20964 243.867 5.49609C244.154 5.77604 244.372 6.11133 244.521 6.50195C244.671 6.88607 244.746 7.32878 244.746 7.83008C244.746 8.25326 244.691 8.64062 244.58 8.99219C244.476 9.33724 244.32 9.64648 244.111 9.91992C243.903 10.1934 243.646 10.431 243.34 10.6328C243.034 10.8346 242.686 10.9974 242.295 11.1211C242.484 11.2122 242.66 11.3229 242.822 11.4531C242.992 11.5833 243.148 11.7428 243.291 11.9316C243.441 12.1139 243.581 12.3255 243.711 12.5664C243.841 12.8008 243.968 13.0677 244.092 13.3672L245.156 15.8574C245.254 16.1048 245.319 16.2871 245.352 16.4043C245.384 16.515 245.4 16.6029 245.4 16.668ZM242.09 8.09375C242.09 7.67708 241.995 7.32552 241.807 7.03906C241.618 6.7526 241.309 6.55078 240.879 6.43359C240.749 6.40104 240.599 6.375 240.43 6.35547C240.267 6.33594 240.039 6.32617 239.746 6.32617H238.594V9.91016H239.902C240.267 9.91016 240.586 9.86784 240.859 9.7832C241.133 9.69206 241.361 9.56836 241.543 9.41211C241.725 9.24935 241.862 9.05729 241.953 8.83594C242.044 8.61458 242.09 8.36719 242.09 8.09375ZM257.646 16.043C257.725 16.2773 257.773 16.4629 257.793 16.5996C257.812 16.7363 257.786 16.8405 257.715 16.9121C257.643 16.9772 257.516 17.0163 257.334 17.0293C257.152 17.0488 256.901 17.0586 256.582 17.0586C256.25 17.0586 255.99 17.0521 255.801 17.0391C255.618 17.0326 255.479 17.0163 255.381 16.9902C255.283 16.9577 255.215 16.9154 255.176 16.8633C255.137 16.8112 255.104 16.7428 255.078 16.6582L254.229 14.1191H249.482L248.682 16.5898C248.656 16.681 248.62 16.7591 248.574 16.8242C248.535 16.8828 248.467 16.9316 248.369 16.9707C248.278 17.0033 248.145 17.026 247.969 17.0391C247.799 17.0521 247.575 17.0586 247.295 17.0586C246.995 17.0586 246.761 17.0488 246.592 17.0293C246.423 17.0098 246.305 16.9642 246.24 16.8926C246.175 16.8145 246.152 16.707 246.172 16.5703C246.191 16.4336 246.24 16.2513 246.318 16.0234L250.215 4.8125C250.254 4.70182 250.299 4.61393 250.352 4.54883C250.404 4.47721 250.485 4.42513 250.596 4.39258C250.713 4.35352 250.872 4.33073 251.074 4.32422C251.276 4.3112 251.543 4.30469 251.875 4.30469C252.259 4.30469 252.565 4.3112 252.793 4.32422C253.021 4.33073 253.197 4.35352 253.32 4.39258C253.451 4.42513 253.542 4.47721 253.594 4.54883C253.652 4.62044 253.701 4.7181 253.74 4.8418L257.646 16.043ZM251.846 6.77539H251.836L250.049 12.1465H253.633L251.846 6.77539ZM269.307 6.32617C269.307 6.51497 269.297 6.67773 269.277 6.81445C269.264 6.95117 269.242 7.06185 269.209 7.14648C269.183 7.22461 269.147 7.27995 269.102 7.3125C269.062 7.34505 269.014 7.36133 268.955 7.36133C268.87 7.36133 268.734 7.30273 268.545 7.18555C268.356 7.06836 268.105 6.94141 267.793 6.80469C267.48 6.66797 267.106 6.54102 266.67 6.42383C266.24 6.30664 265.739 6.24805 265.166 6.24805C264.554 6.24805 264.001 6.35547 263.506 6.57031C263.011 6.77865 262.588 7.07812 262.236 7.46875C261.885 7.85286 261.615 8.31836 261.426 8.86523C261.237 9.4056 261.143 10.0046 261.143 10.6621C261.143 11.3848 261.237 12.0228 261.426 12.5762C261.621 13.123 261.891 13.582 262.236 13.9531C262.581 14.3242 262.995 14.6042 263.477 14.793C263.965 14.9818 264.502 15.0762 265.088 15.0762C265.374 15.0762 265.658 15.0436 265.938 14.9785C266.217 14.9134 266.478 14.8158 266.719 14.6855V11.7559H264.326C264.209 11.7559 264.118 11.6842 264.053 11.541C263.988 11.3913 263.955 11.1406 263.955 10.7891C263.955 10.6068 263.962 10.4538 263.975 10.3301C263.994 10.2064 264.02 10.1087 264.053 10.0371C264.085 9.95898 264.124 9.90365 264.17 9.87109C264.215 9.83203 264.268 9.8125 264.326 9.8125H268.594C268.698 9.8125 268.789 9.83203 268.867 9.87109C268.952 9.90365 269.023 9.95573 269.082 10.0273C269.147 10.099 269.196 10.1868 269.229 10.291C269.261 10.3887 269.277 10.5026 269.277 10.6328V15.6621C269.277 15.8574 269.242 16.0299 269.17 16.1797C269.105 16.3229 268.965 16.4368 268.75 16.5215C268.542 16.6061 268.281 16.694 267.969 16.7852C267.656 16.8763 267.331 16.9544 266.992 17.0195C266.66 17.0846 266.322 17.1335 265.977 17.166C265.638 17.1986 265.296 17.2148 264.951 17.2148C263.942 17.2148 263.037 17.0716 262.236 16.7852C261.442 16.4922 260.768 16.0723 260.215 15.5254C259.661 14.972 259.238 14.3014 258.945 13.5137C258.652 12.7194 258.506 11.821 258.506 10.8184C258.506 9.7832 258.662 8.85547 258.975 8.03516C259.287 7.20833 259.73 6.50846 260.303 5.93555C260.876 5.35612 261.566 4.91341 262.373 4.60742C263.187 4.30143 264.092 4.14844 265.088 4.14844C265.635 4.14844 266.133 4.1875 266.582 4.26562C267.031 4.33724 267.422 4.42839 267.754 4.53906C268.092 4.64323 268.372 4.75716 268.594 4.88086C268.815 5.00456 268.968 5.11198 269.053 5.20312C269.144 5.29427 269.209 5.42448 269.248 5.59375C269.287 5.75651 269.307 6.00065 269.307 6.32617ZM279.414 15.9941C279.414 16.1829 279.404 16.3424 279.385 16.4727C279.372 16.5964 279.349 16.6973 279.316 16.7754C279.284 16.8535 279.242 16.9121 279.189 16.9512C279.144 16.9837 279.092 17 279.033 17H272.686C272.471 17 272.288 16.9382 272.139 16.8145C271.995 16.6842 271.924 16.4759 271.924 16.1895V5.17383C271.924 4.88737 271.995 4.68229 272.139 4.55859C272.288 4.42839 272.471 4.36328 272.686 4.36328H278.994C279.053 4.36328 279.105 4.37956 279.15 4.41211C279.196 4.44466 279.235 4.50326 279.268 4.58789C279.3 4.66602 279.323 4.77018 279.336 4.90039C279.355 5.02409 279.365 5.18359 279.365 5.37891C279.365 5.5612 279.355 5.71745 279.336 5.84766C279.323 5.97135 279.3 6.07227 279.268 6.15039C279.235 6.22852 279.196 6.28711 279.15 6.32617C279.105 6.35872 279.053 6.375 278.994 6.375H274.482V9.46094H278.301C278.359 9.46094 278.411 9.48047 278.457 9.51953C278.509 9.55208 278.551 9.60742 278.584 9.68555C278.617 9.75716 278.639 9.85807 278.652 9.98828C278.672 10.112 278.682 10.265 278.682 10.4473C278.682 10.6361 278.672 10.7923 278.652 10.916C278.639 11.0397 278.617 11.1406 278.584 11.2188C278.551 11.2904 278.509 11.3424 278.457 11.375C278.411 11.4076 278.359 11.4238 278.301 11.4238H274.482V14.9883H279.033C279.092 14.9883 279.144 15.0078 279.189 15.0469C279.242 15.0794 279.284 15.1348 279.316 15.2129C279.349 15.291 279.372 15.3952 279.385 15.5254C279.404 15.6491 279.414 15.8053 279.414 15.9941ZM310.01 4.11914C310.01 4.32096 310 4.50651 309.98 4.67578C309.961 4.83854 309.928 4.99479 309.883 5.14453C309.844 5.29427 309.785 5.44401 309.707 5.59375C309.635 5.73698 309.548 5.88672 309.443 6.04297L308.115 8.04492C308.089 8.09701 308.053 8.14258 308.008 8.18164C307.969 8.21419 307.92 8.24349 307.861 8.26953C307.803 8.28906 307.734 8.30534 307.656 8.31836C307.578 8.33138 307.48 8.33789 307.363 8.33789C307.259 8.33789 307.171 8.33464 307.1 8.32812C307.035 8.3151 306.982 8.29557 306.943 8.26953C306.911 8.24349 306.895 8.21094 306.895 8.17188C306.895 8.13281 306.904 8.08398 306.924 8.02539L308.213 5.35938V4.11914C308.213 3.94987 308.229 3.81315 308.262 3.70898C308.294 3.60482 308.346 3.52669 308.418 3.47461C308.496 3.41602 308.59 3.37695 308.701 3.35742C308.818 3.33789 308.958 3.32812 309.121 3.32812C309.271 3.32812 309.401 3.33789 309.512 3.35742C309.629 3.37695 309.723 3.41602 309.795 3.47461C309.867 3.52669 309.919 3.60482 309.951 3.70898C309.99 3.81315 310.01 3.94987 310.01 4.11914ZM306.514 4.11914C306.514 4.32096 306.504 4.50651 306.484 4.67578C306.465 4.83854 306.432 4.99479 306.387 5.14453C306.348 5.29427 306.289 5.44401 306.211 5.59375C306.139 5.73698 306.051 5.88672 305.947 6.04297L304.619 8.04492C304.593 8.09701 304.557 8.14258 304.512 8.18164C304.473 8.21419 304.424 8.24349 304.365 8.26953C304.307 8.28906 304.238 8.30534 304.16 8.31836C304.082 8.33138 303.984 8.33789 303.867 8.33789C303.763 8.33789 303.675 8.33464 303.604 8.32812C303.532 8.3151 303.48 8.29557 303.447 8.26953C303.415 8.24349 303.395 8.21094 303.389 8.17188C303.389 8.13281 303.402 8.08398 303.428 8.02539L304.717 5.35938V4.11914C304.717 3.94987 304.733 3.81315 304.766 3.70898C304.798 3.60482 304.85 3.52669 304.922 3.47461C305 3.41602 305.094 3.37695 305.205 3.35742C305.322 3.33789 305.462 3.32812 305.625 3.32812C305.781 3.32812 305.915 3.33789 306.025 3.35742C306.136 3.37695 306.227 3.41602 306.299 3.47461C306.37 3.52669 306.423 3.60482 306.455 3.70898C306.494 3.81315 306.514 3.94987 306.514 4.11914Z" fill="white"/>
<path d="M61.582 12.1953C61.582 12.9701 61.4974 13.6667 61.3281 14.2852C61.1589 14.9036 60.9147 15.431 60.5957 15.8672C60.2767 16.3034 59.8828 16.6387 59.4141 16.873C58.9518 17.1074 58.4245 17.2246 57.832 17.2246C57.5391 17.2246 57.2656 17.1953 57.0117 17.1367C56.7578 17.0846 56.5137 16.9967 56.2793 16.873C56.0514 16.7493 55.8236 16.5931 55.5957 16.4043C55.3743 16.2155 55.1465 15.9876 54.9121 15.7207V16.668C54.9121 16.7396 54.8926 16.8014 54.8535 16.8535C54.821 16.8991 54.7624 16.9382 54.6777 16.9707C54.5996 17.0033 54.4922 17.026 54.3555 17.0391C54.2188 17.0521 54.0527 17.0586 53.8574 17.0586C53.6556 17.0586 53.4863 17.0521 53.3496 17.0391C53.2194 17.026 53.112 17.0033 53.0273 16.9707C52.9492 16.9382 52.8939 16.8991 52.8613 16.8535C52.8288 16.8014 52.8125 16.7396 52.8125 16.668V3.82617C52.8125 3.76107 52.832 3.70247 52.8711 3.65039C52.9102 3.59831 52.9753 3.55599 53.0664 3.52344C53.1641 3.48438 53.291 3.45508 53.4473 3.43555C53.6035 3.41602 53.8021 3.40625 54.043 3.40625C54.2839 3.40625 54.4824 3.41602 54.6387 3.43555C54.7949 3.45508 54.9186 3.48438 55.0098 3.52344C55.1074 3.55599 55.1758 3.59831 55.2148 3.65039C55.2539 3.70247 55.2734 3.76107 55.2734 3.82617V8.64062C55.4948 8.41927 55.7161 8.23047 55.9375 8.07422C56.1589 7.91797 56.3802 7.79102 56.6016 7.69336C56.8229 7.58919 57.0508 7.51432 57.2852 7.46875C57.5195 7.42318 57.7669 7.40039 58.0273 7.40039C58.6719 7.40039 59.2188 7.5306 59.668 7.79102C60.1172 8.04492 60.4818 8.38997 60.7617 8.82617C61.0482 9.26237 61.2565 9.77344 61.3867 10.3594C61.5169 10.9388 61.582 11.5508 61.582 12.1953ZM59.0332 12.3711C59.0332 12 59.0039 11.6419 58.9453 11.2969C58.8932 10.9518 58.7988 10.6458 58.6621 10.3789C58.5254 10.112 58.3464 9.90039 58.125 9.74414C57.9102 9.58138 57.6367 9.5 57.3047 9.5C57.1419 9.5 56.9824 9.52279 56.8262 9.56836C56.6699 9.61393 56.5072 9.69206 56.3379 9.80273C56.1751 9.91341 56.0059 10.0566 55.8301 10.2324C55.6543 10.4082 55.4688 10.6263 55.2734 10.8867V13.7773C55.6185 14.2201 55.9473 14.5586 56.2598 14.793C56.5788 15.0208 56.9108 15.1348 57.2559 15.1348C57.5749 15.1348 57.8451 15.0534 58.0664 14.8906C58.2878 14.7279 58.4701 14.5163 58.6133 14.2559C58.763 13.9954 58.8704 13.6992 58.9355 13.3672C59.0007 13.0352 59.0332 12.7031 59.0332 12.3711ZM71.6016 12.0586C71.6016 12.3581 71.5332 12.5794 71.3965 12.7227C71.2663 12.8659 71.084 12.9375 70.8496 12.9375H65.5469C65.5469 13.3086 65.5892 13.6471 65.6738 13.9531C65.765 14.2526 65.9049 14.5098 66.0938 14.7246C66.2891 14.9329 66.5365 15.0924 66.8359 15.2031C67.1419 15.3138 67.5065 15.3691 67.9297 15.3691C68.3594 15.3691 68.737 15.3398 69.0625 15.2812C69.388 15.2161 69.668 15.1478 69.9023 15.0762C70.1432 14.998 70.3418 14.9297 70.498 14.8711C70.6543 14.806 70.7812 14.7734 70.8789 14.7734C70.9375 14.7734 70.9863 14.7865 71.0254 14.8125C71.0645 14.832 71.097 14.8711 71.123 14.9297C71.1491 14.9883 71.1654 15.0729 71.1719 15.1836C71.1849 15.2878 71.1914 15.4212 71.1914 15.584C71.1914 15.7272 71.1882 15.8509 71.1816 15.9551C71.1751 16.0527 71.1654 16.1374 71.1523 16.209C71.1393 16.2806 71.1198 16.3424 71.0938 16.3945C71.0677 16.4401 71.0319 16.4857 70.9863 16.5312C70.9473 16.5768 70.8333 16.6387 70.6445 16.7168C70.4557 16.7949 70.2148 16.873 69.9219 16.9512C69.6289 17.0228 69.2936 17.0846 68.916 17.1367C68.5384 17.1953 68.1348 17.2246 67.7051 17.2246C66.9303 17.2246 66.25 17.127 65.6641 16.9316C65.0846 16.7363 64.5996 16.4401 64.209 16.043C63.8184 15.6458 63.5254 15.1445 63.3301 14.5391C63.1413 13.9336 63.0469 13.224 63.0469 12.4102C63.0469 11.6354 63.1478 10.9388 63.3496 10.3203C63.5514 9.69531 63.8444 9.16797 64.2285 8.73828C64.6126 8.30208 65.0781 7.97005 65.625 7.74219C66.1784 7.51432 66.8001 7.40039 67.4902 7.40039C68.2194 7.40039 68.8411 7.50781 69.3555 7.72266C69.8763 7.9375 70.3027 8.23698 70.6348 8.62109C70.9668 8.9987 71.2109 9.44792 71.3672 9.96875C71.5234 10.4896 71.6016 11.056 71.6016 11.668V12.0586ZM69.2188 11.3555C69.2383 10.6654 69.0983 10.125 68.7988 9.73438C68.5059 9.33724 68.0501 9.13867 67.4316 9.13867C67.1191 9.13867 66.8457 9.19727 66.6113 9.31445C66.3835 9.43164 66.1914 9.59115 66.0352 9.79297C65.8854 9.98828 65.7682 10.2227 65.6836 10.4961C65.6055 10.763 65.5599 11.0495 65.5469 11.3555H69.2188ZM84.8438 15.8086C84.8438 16.0951 84.8242 16.3132 84.7852 16.4629C84.7526 16.6126 84.7038 16.7201 84.6387 16.7852C84.5801 16.8503 84.4922 16.9056 84.375 16.9512C84.2643 16.9967 84.1341 17.0391 83.9844 17.0781C83.8346 17.1172 83.6686 17.1465 83.4863 17.166C83.3105 17.1855 83.1348 17.1953 82.959 17.1953C82.4642 17.1953 82.0378 17.1335 81.6797 17.0098C81.3216 16.8861 81.0254 16.6973 80.791 16.4434C80.5566 16.1829 80.3841 15.8574 80.2734 15.4668C80.1628 15.0762 80.1074 14.6139 80.1074 14.0801V9.61719H76.3672V13.709C76.3672 14.1842 76.4421 14.5423 76.5918 14.7832C76.7415 15.0176 77.0085 15.1348 77.3926 15.1348C77.5228 15.1348 77.64 15.125 77.7441 15.1055C77.8483 15.0794 77.9395 15.0534 78.0176 15.0273C78.1022 14.9948 78.1706 14.9688 78.2227 14.9492C78.2812 14.9232 78.3333 14.9102 78.3789 14.9102C78.418 14.9102 78.4538 14.9232 78.4863 14.9492C78.5254 14.9688 78.5547 15.0143 78.5742 15.0859C78.5938 15.151 78.61 15.2422 78.623 15.3594C78.6426 15.4766 78.6523 15.6263 78.6523 15.8086C78.6523 15.9909 78.6458 16.1374 78.6328 16.248C78.6263 16.3522 78.6133 16.4401 78.5938 16.5117C78.5807 16.5833 78.5612 16.6452 78.5352 16.6973C78.5156 16.7428 78.4798 16.7884 78.4277 16.834C78.3757 16.873 78.2943 16.9154 78.1836 16.9609C78.0729 17.0065 77.9427 17.0456 77.793 17.0781C77.6432 17.1172 77.4772 17.1465 77.2949 17.166C77.1191 17.1855 76.9401 17.1953 76.7578 17.1953C76.2695 17.1953 75.8464 17.1335 75.4883 17.0098C75.1302 16.8861 74.834 16.6973 74.5996 16.4434C74.3652 16.1829 74.1927 15.8574 74.082 15.4668C73.9714 15.0762 73.916 14.6139 73.916 14.0801V9.61719H72.8711C72.7474 9.61719 72.653 9.54232 72.5879 9.39258C72.5228 9.23633 72.4902 8.97917 72.4902 8.62109C72.4902 8.43229 72.4967 8.27279 72.5098 8.14258C72.5293 8.01237 72.5553 7.91146 72.5879 7.83984C72.6204 7.76172 72.6595 7.70638 72.7051 7.67383C72.7572 7.64128 72.8158 7.625 72.8809 7.625H73.916V5.68164C73.916 5.61654 73.9323 5.55794 73.9648 5.50586C74.0039 5.45378 74.069 5.41146 74.1602 5.37891C74.2578 5.33984 74.3848 5.3138 74.541 5.30078C74.7038 5.28125 74.9023 5.27148 75.1367 5.27148C75.3776 5.27148 75.5762 5.28125 75.7324 5.30078C75.8952 5.3138 76.0221 5.33984 76.1133 5.37891C76.2044 5.41146 76.2695 5.45378 76.3086 5.50586C76.3477 5.55794 76.3672 5.61654 76.3672 5.68164V7.625H80.1074V5.21289C80.1074 5.14779 80.1237 5.08919 80.1562 5.03711C80.1953 4.98503 80.2604 4.94271 80.3516 4.91016C80.4492 4.8776 80.5762 4.85156 80.7324 4.83203C80.8952 4.8125 81.0938 4.80273 81.3281 4.80273C81.569 4.80273 81.7676 4.8125 81.9238 4.83203C82.0866 4.85156 82.2135 4.8776 82.3047 4.91016C82.3958 4.94271 82.4609 4.98503 82.5 5.03711C82.5391 5.08919 82.5586 5.14779 82.5586 5.21289V7.625H84.4531C84.5182 7.625 84.5736 7.64128 84.6191 7.67383C84.6647 7.70638 84.7038 7.76172 84.7363 7.83984C84.7754 7.91146 84.8014 8.01237 84.8145 8.14258C84.834 8.27279 84.8438 8.43229 84.8438 8.62109C84.8438 8.97917 84.8079 9.23633 84.7363 9.39258C84.6712 9.54232 84.5801 9.61719 84.4629 9.61719H82.5586V13.709C82.5586 14.1842 82.6302 14.5423 82.7734 14.7832C82.9232 15.0176 83.1934 15.1348 83.584 15.1348C83.7142 15.1348 83.8314 15.125 83.9355 15.1055C84.0397 15.0794 84.1309 15.0534 84.209 15.0273C84.2871 14.9948 84.3555 14.9688 84.4141 14.9492C84.4727 14.9232 84.5247 14.9102 84.5703 14.9102C84.6094 14.9102 84.6452 14.9232 84.6777 14.9492C84.7103 14.9688 84.7363 15.0143 84.7559 15.0859C84.7819 15.151 84.8014 15.2422 84.8145 15.3594C84.834 15.4766 84.8438 15.6263 84.8438 15.8086ZM94.4141 12.0586C94.4141 12.3581 94.3457 12.5794 94.209 12.7227C94.0788 12.8659 93.8965 12.9375 93.6621 12.9375H88.3594C88.3594 13.3086 88.4017 13.6471 88.4863 13.9531C88.5775 14.2526 88.7174 14.5098 88.9062 14.7246C89.1016 14.9329 89.349 15.0924 89.6484 15.2031C89.9544 15.3138 90.319 15.3691 90.7422 15.3691C91.1719 15.3691 91.5495 15.3398 91.875 15.2812C92.2005 15.2161 92.4805 15.1478 92.7148 15.0762C92.9557 14.998 93.1543 14.9297 93.3105 14.8711C93.4668 14.806 93.5938 14.7734 93.6914 14.7734C93.75 14.7734 93.7988 14.7865 93.8379 14.8125C93.877 14.832 93.9095 14.8711 93.9355 14.9297C93.9616 14.9883 93.9779 15.0729 93.9844 15.1836C93.9974 15.2878 94.0039 15.4212 94.0039 15.584C94.0039 15.7272 94.0007 15.8509 93.9941 15.9551C93.9876 16.0527 93.9779 16.1374 93.9648 16.209C93.9518 16.2806 93.9323 16.3424 93.9062 16.3945C93.8802 16.4401 93.8444 16.4857 93.7988 16.5312C93.7598 16.5768 93.6458 16.6387 93.457 16.7168C93.2682 16.7949 93.0273 16.873 92.7344 16.9512C92.4414 17.0228 92.1061 17.0846 91.7285 17.1367C91.3509 17.1953 90.9473 17.2246 90.5176 17.2246C89.7428 17.2246 89.0625 17.127 88.4766 16.9316C87.8971 16.7363 87.4121 16.4401 87.0215 16.043C86.6309 15.6458 86.3379 15.1445 86.1426 14.5391C85.9538 13.9336 85.8594 13.224 85.8594 12.4102C85.8594 11.6354 85.9603 10.9388 86.1621 10.3203C86.3639 9.69531 86.6569 9.16797 87.041 8.73828C87.4251 8.30208 87.8906 7.97005 88.4375 7.74219C88.9909 7.51432 89.6126 7.40039 90.3027 7.40039C91.0319 7.40039 91.6536 7.50781 92.168 7.72266C92.6888 7.9375 93.1152 8.23698 93.4473 8.62109C93.7793 8.9987 94.0234 9.44792 94.1797 9.96875C94.3359 10.4896 94.4141 11.056 94.4141 11.668V12.0586ZM92.0312 11.3555C92.0508 10.6654 91.9108 10.125 91.6113 9.73438C91.3184 9.33724 90.8626 9.13867 90.2441 9.13867C89.9316 9.13867 89.6582 9.19727 89.4238 9.31445C89.196 9.43164 89.0039 9.59115 88.8477 9.79297C88.6979 9.98828 88.5807 10.2227 88.4961 10.4961C88.418 10.763 88.3724 11.0495 88.3594 11.3555H92.0312ZM102.041 8.76758C102.041 9.00195 102.035 9.19401 102.021 9.34375C102.008 9.49349 101.989 9.61068 101.963 9.69531C101.937 9.77995 101.901 9.83854 101.855 9.87109C101.816 9.90365 101.764 9.91992 101.699 9.91992C101.647 9.91992 101.589 9.91016 101.523 9.89062C101.458 9.86458 101.383 9.83854 101.299 9.8125C101.221 9.78646 101.133 9.76367 101.035 9.74414C100.938 9.7181 100.83 9.70508 100.713 9.70508C100.576 9.70508 100.439 9.73438 100.303 9.79297C100.166 9.84505 100.023 9.92969 99.873 10.0469C99.7298 10.1641 99.5768 10.3203 99.4141 10.5156C99.2578 10.7109 99.0885 10.9518 98.9062 11.2383V16.668C98.9062 16.7331 98.8867 16.7917 98.8477 16.8438C98.8086 16.8893 98.7402 16.9284 98.6426 16.9609C98.5514 16.9935 98.4277 17.0163 98.2715 17.0293C98.1152 17.0488 97.9167 17.0586 97.6758 17.0586C97.4349 17.0586 97.2363 17.0488 97.0801 17.0293C96.9238 17.0163 96.7969 16.9935 96.6992 16.9609C96.6081 16.9284 96.543 16.8893 96.5039 16.8438C96.4648 16.7917 96.4453 16.7331 96.4453 16.668V7.95703C96.4453 7.89193 96.4616 7.83659 96.4941 7.79102C96.5267 7.73893 96.5853 7.69661 96.6699 7.66406C96.7546 7.63151 96.862 7.60872 96.9922 7.5957C97.1289 7.57617 97.2982 7.56641 97.5 7.56641C97.7083 7.56641 97.8809 7.57617 98.0176 7.5957C98.1543 7.60872 98.2585 7.63151 98.3301 7.66406C98.4082 7.69661 98.4635 7.73893 98.4961 7.79102C98.5286 7.83659 98.5449 7.89193 98.5449 7.95703V9.04102C98.7728 8.71549 98.9876 8.44857 99.1895 8.24023C99.3913 8.02539 99.5833 7.85612 99.7656 7.73242C99.9479 7.60872 100.13 7.52409 100.312 7.47852C100.495 7.42643 100.677 7.40039 100.859 7.40039C100.944 7.40039 101.035 7.4069 101.133 7.41992C101.23 7.42643 101.331 7.44271 101.436 7.46875C101.54 7.48828 101.631 7.51432 101.709 7.54688C101.787 7.57292 101.842 7.60221 101.875 7.63477C101.914 7.66732 101.94 7.70312 101.953 7.74219C101.973 7.78125 101.989 7.83659 102.002 7.9082C102.015 7.97331 102.025 8.07422 102.031 8.21094C102.038 8.34766 102.041 8.5332 102.041 8.76758ZM148.477 4.63672C148.477 4.82552 148.47 4.97852 148.457 5.0957C148.444 5.20638 148.424 5.29427 148.398 5.35938C148.372 5.41797 148.343 5.46029 148.311 5.48633C148.278 5.50586 148.242 5.51562 148.203 5.51562C148.158 5.51562 148.105 5.50586 148.047 5.48633C147.995 5.46029 147.926 5.43424 147.842 5.4082C147.764 5.38216 147.669 5.35938 147.559 5.33984C147.448 5.3138 147.318 5.30078 147.168 5.30078C146.992 5.30078 146.839 5.33008 146.709 5.38867C146.585 5.44076 146.481 5.52865 146.396 5.65234C146.312 5.76953 146.25 5.92578 146.211 6.12109C146.172 6.3099 146.152 6.54427 146.152 6.82422V7.625H147.744C147.803 7.625 147.855 7.64128 147.9 7.67383C147.952 7.70638 147.995 7.76172 148.027 7.83984C148.06 7.91146 148.083 8.01237 148.096 8.14258C148.115 8.27279 148.125 8.43229 148.125 8.62109C148.125 8.97917 148.092 9.23633 148.027 9.39258C147.962 9.54232 147.868 9.61719 147.744 9.61719H146.152V16.668C146.152 16.7331 146.133 16.7917 146.094 16.8438C146.055 16.8893 145.99 16.9284 145.898 16.9609C145.807 16.9935 145.68 17.0163 145.518 17.0293C145.355 17.0488 145.156 17.0586 144.922 17.0586C144.688 17.0586 144.489 17.0488 144.326 17.0293C144.17 17.0163 144.043 16.9935 143.945 16.9609C143.854 16.9284 143.789 16.8893 143.75 16.8438C143.717 16.7917 143.701 16.7331 143.701 16.668V9.61719H142.607C142.484 9.61719 142.389 9.54232 142.324 9.39258C142.266 9.23633 142.236 8.97917 142.236 8.62109C142.236 8.43229 142.243 8.27279 142.256 8.14258C142.275 8.01237 142.298 7.91146 142.324 7.83984C142.357 7.76172 142.396 7.70638 142.441 7.67383C142.493 7.64128 142.552 7.625 142.617 7.625H143.701V6.89258C143.701 6.30013 143.76 5.78255 143.877 5.33984C143.994 4.89062 144.176 4.51953 144.424 4.22656C144.678 3.92708 144.997 3.70247 145.381 3.55273C145.771 3.40299 146.23 3.32812 146.758 3.32812C147.012 3.32812 147.253 3.35091 147.48 3.39648C147.708 3.43555 147.887 3.48112 148.018 3.5332C148.148 3.57878 148.236 3.62435 148.281 3.66992C148.327 3.70898 148.363 3.77083 148.389 3.85547C148.421 3.93359 148.444 4.03776 148.457 4.16797C148.47 4.29167 148.477 4.44792 148.477 4.63672ZM156.641 16.6973C156.641 16.7884 156.608 16.86 156.543 16.9121C156.478 16.9642 156.374 17 156.23 17.0195C156.094 17.0456 155.889 17.0586 155.615 17.0586C155.322 17.0586 155.107 17.0456 154.971 17.0195C154.84 17 154.746 16.9642 154.688 16.9121C154.635 16.86 154.609 16.7884 154.609 16.6973V16.0039C154.251 16.388 153.841 16.6875 153.379 16.9023C152.923 17.1172 152.415 17.2246 151.855 17.2246C151.393 17.2246 150.967 17.1628 150.576 17.0391C150.192 16.9219 149.857 16.7461 149.57 16.5117C149.29 16.2708 149.072 15.9746 148.916 15.623C148.76 15.2715 148.682 14.8613 148.682 14.3926C148.682 13.8848 148.779 13.4453 148.975 13.0742C149.176 12.6966 149.473 12.3874 149.863 12.1465C150.26 11.8991 150.752 11.7168 151.338 11.5996C151.924 11.4824 152.604 11.4238 153.379 11.4238H154.229V10.8965C154.229 10.623 154.199 10.3854 154.141 10.1836C154.089 9.97526 153.997 9.80273 153.867 9.66602C153.743 9.5293 153.574 9.42839 153.359 9.36328C153.151 9.29818 152.891 9.26562 152.578 9.26562C152.168 9.26562 151.8 9.3112 151.475 9.40234C151.156 9.49349 150.872 9.5944 150.625 9.70508C150.378 9.81576 150.169 9.91667 150 10.0078C149.837 10.099 149.704 10.1445 149.6 10.1445C149.528 10.1445 149.463 10.1217 149.404 10.0762C149.352 10.0306 149.307 9.96549 149.268 9.88086C149.235 9.79622 149.209 9.69206 149.189 9.56836C149.17 9.44466 149.16 9.30794 149.16 9.1582C149.16 8.95638 149.176 8.79688 149.209 8.67969C149.242 8.5625 149.303 8.45833 149.395 8.36719C149.486 8.26953 149.645 8.16536 149.873 8.05469C150.101 7.9375 150.368 7.83008 150.674 7.73242C150.98 7.63477 151.312 7.55664 151.67 7.49805C152.035 7.43294 152.409 7.40039 152.793 7.40039C153.477 7.40039 154.059 7.46875 154.541 7.60547C155.029 7.73568 155.43 7.94076 155.742 8.2207C156.055 8.49414 156.283 8.84896 156.426 9.28516C156.569 9.72135 156.641 10.2389 156.641 10.8379V16.6973ZM154.229 12.9668H153.291C152.894 12.9668 152.555 12.9961 152.275 13.0547C151.995 13.1133 151.768 13.2012 151.592 13.3184C151.416 13.4355 151.286 13.5788 151.201 13.748C151.123 13.9108 151.084 14.0996 151.084 14.3145C151.084 14.679 151.198 14.9655 151.426 15.1738C151.66 15.3822 151.982 15.4863 152.393 15.4863C152.738 15.4863 153.053 15.3984 153.34 15.2227C153.633 15.0469 153.929 14.7897 154.229 14.4512V12.9668ZM165.234 14.207C165.234 14.7018 165.14 15.138 164.951 15.5156C164.769 15.8932 164.508 16.209 164.17 16.4629C163.831 16.7168 163.431 16.9056 162.969 17.0293C162.507 17.1595 162.005 17.2246 161.465 17.2246C161.139 17.2246 160.827 17.1986 160.527 17.1465C160.234 17.1009 159.971 17.0423 159.736 16.9707C159.502 16.8926 159.307 16.8145 159.15 16.7363C158.994 16.6582 158.88 16.5866 158.809 16.5215C158.737 16.4499 158.682 16.3424 158.643 16.1992C158.604 16.0495 158.584 15.8314 158.584 15.5449C158.584 15.3561 158.59 15.2064 158.604 15.0957C158.617 14.9785 158.636 14.8874 158.662 14.8223C158.688 14.7507 158.721 14.7051 158.76 14.6855C158.799 14.6595 158.848 14.6465 158.906 14.6465C158.978 14.6465 159.082 14.6888 159.219 14.7734C159.362 14.8516 159.538 14.9395 159.746 15.0371C159.954 15.1348 160.195 15.2259 160.469 15.3105C160.749 15.3952 161.064 15.4375 161.416 15.4375C161.637 15.4375 161.833 15.4147 162.002 15.3691C162.178 15.3236 162.327 15.2585 162.451 15.1738C162.581 15.0892 162.679 14.9818 162.744 14.8516C162.809 14.7214 162.842 14.5716 162.842 14.4023C162.842 14.207 162.78 14.041 162.656 13.9043C162.539 13.7611 162.38 13.6374 162.178 13.5332C161.982 13.429 161.758 13.3314 161.504 13.2402C161.257 13.1491 160.999 13.0482 160.732 12.9375C160.472 12.8268 160.215 12.6999 159.961 12.5566C159.714 12.4134 159.489 12.2376 159.287 12.0293C159.092 11.821 158.932 11.5703 158.809 11.2773C158.691 10.9844 158.633 10.6328 158.633 10.2227C158.633 9.80599 158.714 9.42513 158.877 9.08008C159.04 8.72852 159.274 8.42904 159.58 8.18164C159.886 7.93424 160.257 7.74219 160.693 7.60547C161.136 7.46875 161.631 7.40039 162.178 7.40039C162.451 7.40039 162.715 7.41992 162.969 7.45898C163.229 7.49805 163.464 7.54688 163.672 7.60547C163.88 7.66406 164.056 7.72917 164.199 7.80078C164.342 7.86589 164.443 7.92448 164.502 7.97656C164.567 8.02214 164.613 8.07096 164.639 8.12305C164.665 8.16862 164.684 8.22721 164.697 8.29883C164.71 8.36393 164.72 8.44857 164.727 8.55273C164.74 8.65039 164.746 8.77409 164.746 8.92383C164.746 9.09961 164.74 9.24284 164.727 9.35352C164.72 9.46419 164.704 9.55208 164.678 9.61719C164.658 9.68229 164.629 9.72786 164.59 9.75391C164.551 9.77344 164.505 9.7832 164.453 9.7832C164.395 9.7832 164.303 9.75065 164.18 9.68555C164.056 9.61393 163.9 9.53906 163.711 9.46094C163.529 9.38281 163.314 9.3112 163.066 9.24609C162.826 9.17448 162.549 9.13867 162.236 9.13867C162.015 9.13867 161.823 9.16146 161.66 9.20703C161.497 9.2526 161.364 9.31771 161.26 9.40234C161.156 9.48698 161.077 9.58789 161.025 9.70508C160.973 9.81576 160.947 9.9362 160.947 10.0664C160.947 10.2682 161.009 10.4375 161.133 10.5742C161.257 10.7109 161.419 10.8314 161.621 10.9355C161.823 11.0397 162.051 11.1374 162.305 11.2285C162.565 11.3197 162.826 11.4206 163.086 11.5312C163.353 11.6354 163.613 11.7591 163.867 11.9023C164.128 12.0456 164.359 12.2214 164.561 12.4297C164.762 12.638 164.925 12.8887 165.049 13.1816C165.173 13.4681 165.234 13.8099 165.234 14.207ZM172.012 15.8086C172.012 16.0951 171.992 16.3164 171.953 16.4727C171.921 16.6224 171.875 16.7298 171.816 16.7949C171.758 16.8535 171.67 16.9089 171.553 16.9609C171.442 17.0065 171.309 17.0456 171.152 17.0781C171.003 17.1172 170.837 17.1465 170.654 17.166C170.479 17.1855 170.299 17.1953 170.117 17.1953C169.629 17.1953 169.206 17.1335 168.848 17.0098C168.49 16.8861 168.193 16.6973 167.959 16.4434C167.725 16.1829 167.552 15.8574 167.441 15.4668C167.331 15.0762 167.275 14.6139 167.275 14.0801V9.61719H166.23C166.107 9.61719 166.012 9.54232 165.947 9.39258C165.882 9.23633 165.85 8.97917 165.85 8.62109C165.85 8.43229 165.856 8.27279 165.869 8.14258C165.889 8.01237 165.915 7.91146 165.947 7.83984C165.98 7.76172 166.019 7.70638 166.064 7.67383C166.117 7.64128 166.175 7.625 166.24 7.625H167.275V5.68164C167.275 5.61654 167.292 5.55794 167.324 5.50586C167.363 5.45378 167.428 5.41146 167.52 5.37891C167.617 5.33984 167.744 5.3138 167.9 5.30078C168.063 5.28125 168.262 5.27148 168.496 5.27148C168.737 5.27148 168.936 5.28125 169.092 5.30078C169.255 5.3138 169.382 5.33984 169.473 5.37891C169.564 5.41146 169.629 5.45378 169.668 5.50586C169.707 5.55794 169.727 5.61654 169.727 5.68164V7.625H171.621C171.686 7.625 171.742 7.64128 171.787 7.67383C171.839 7.70638 171.882 7.76172 171.914 7.83984C171.947 7.91146 171.969 8.01237 171.982 8.14258C172.002 8.27279 172.012 8.43229 172.012 8.62109C172.012 8.97917 171.979 9.23633 171.914 9.39258C171.849 9.54232 171.755 9.61719 171.631 9.61719H169.727V13.709C169.727 14.1842 169.801 14.5423 169.951 14.7832C170.101 15.0176 170.368 15.1348 170.752 15.1348C170.882 15.1348 170.999 15.125 171.104 15.1055C171.208 15.0794 171.299 15.0534 171.377 15.0273C171.462 14.9948 171.53 14.9688 171.582 14.9492C171.641 14.9232 171.693 14.9102 171.738 14.9102C171.777 14.9102 171.813 14.9232 171.846 14.9492C171.885 14.9688 171.914 15.0143 171.934 15.0859C171.953 15.151 171.969 15.2422 171.982 15.3594C172.002 15.4766 172.012 15.6263 172.012 15.8086ZM181.582 12.0586C181.582 12.3581 181.514 12.5794 181.377 12.7227C181.247 12.8659 181.064 12.9375 180.83 12.9375H175.527C175.527 13.3086 175.57 13.6471 175.654 13.9531C175.745 14.2526 175.885 14.5098 176.074 14.7246C176.27 14.9329 176.517 15.0924 176.816 15.2031C177.122 15.3138 177.487 15.3691 177.91 15.3691C178.34 15.3691 178.717 15.3398 179.043 15.2812C179.368 15.2161 179.648 15.1478 179.883 15.0762C180.124 14.998 180.322 14.9297 180.479 14.8711C180.635 14.806 180.762 14.7734 180.859 14.7734C180.918 14.7734 180.967 14.7865 181.006 14.8125C181.045 14.832 181.077 14.8711 181.104 14.9297C181.13 14.9883 181.146 15.0729 181.152 15.1836C181.165 15.2878 181.172 15.4212 181.172 15.584C181.172 15.7272 181.169 15.8509 181.162 15.9551C181.156 16.0527 181.146 16.1374 181.133 16.209C181.12 16.2806 181.1 16.3424 181.074 16.3945C181.048 16.4401 181.012 16.4857 180.967 16.5312C180.928 16.5768 180.814 16.6387 180.625 16.7168C180.436 16.7949 180.195 16.873 179.902 16.9512C179.609 17.0228 179.274 17.0846 178.896 17.1367C178.519 17.1953 178.115 17.2246 177.686 17.2246C176.911 17.2246 176.23 17.127 175.645 16.9316C175.065 16.7363 174.58 16.4401 174.189 16.043C173.799 15.6458 173.506 15.1445 173.311 14.5391C173.122 13.9336 173.027 13.224 173.027 12.4102C173.027 11.6354 173.128 10.9388 173.33 10.3203C173.532 9.69531 173.825 9.16797 174.209 8.73828C174.593 8.30208 175.059 7.97005 175.605 7.74219C176.159 7.51432 176.781 7.40039 177.471 7.40039C178.2 7.40039 178.822 7.50781 179.336 7.72266C179.857 7.9375 180.283 8.23698 180.615 8.62109C180.947 8.9987 181.191 9.44792 181.348 9.96875C181.504 10.4896 181.582 11.056 181.582 11.668V12.0586ZM179.199 11.3555C179.219 10.6654 179.079 10.125 178.779 9.73438C178.486 9.33724 178.031 9.13867 177.412 9.13867C177.1 9.13867 176.826 9.19727 176.592 9.31445C176.364 9.43164 176.172 9.59115 176.016 9.79297C175.866 9.98828 175.749 10.2227 175.664 10.4961C175.586 10.763 175.54 11.0495 175.527 11.3555H179.199ZM189.209 8.76758C189.209 9.00195 189.202 9.19401 189.189 9.34375C189.176 9.49349 189.157 9.61068 189.131 9.69531C189.105 9.77995 189.069 9.83854 189.023 9.87109C188.984 9.90365 188.932 9.91992 188.867 9.91992C188.815 9.91992 188.757 9.91016 188.691 9.89062C188.626 9.86458 188.551 9.83854 188.467 9.8125C188.389 9.78646 188.301 9.76367 188.203 9.74414C188.105 9.7181 187.998 9.70508 187.881 9.70508C187.744 9.70508 187.607 9.73438 187.471 9.79297C187.334 9.84505 187.191 9.92969 187.041 10.0469C186.898 10.1641 186.745 10.3203 186.582 10.5156C186.426 10.7109 186.257 10.9518 186.074 11.2383V16.668C186.074 16.7331 186.055 16.7917 186.016 16.8438C185.977 16.8893 185.908 16.9284 185.811 16.9609C185.719 16.9935 185.596 17.0163 185.439 17.0293C185.283 17.0488 185.085 17.0586 184.844 17.0586C184.603 17.0586 184.404 17.0488 184.248 17.0293C184.092 17.0163 183.965 16.9935 183.867 16.9609C183.776 16.9284 183.711 16.8893 183.672 16.8438C183.633 16.7917 183.613 16.7331 183.613 16.668V7.95703C183.613 7.89193 183.63 7.83659 183.662 7.79102C183.695 7.73893 183.753 7.69661 183.838 7.66406C183.923 7.63151 184.03 7.60872 184.16 7.5957C184.297 7.57617 184.466 7.56641 184.668 7.56641C184.876 7.56641 185.049 7.57617 185.186 7.5957C185.322 7.60872 185.426 7.63151 185.498 7.66406C185.576 7.69661 185.632 7.73893 185.664 7.79102C185.697 7.83659 185.713 7.89193 185.713 7.95703V9.04102C185.941 8.71549 186.156 8.44857 186.357 8.24023C186.559 8.02539 186.751 7.85612 186.934 7.73242C187.116 7.60872 187.298 7.52409 187.48 7.47852C187.663 7.42643 187.845 7.40039 188.027 7.40039C188.112 7.40039 188.203 7.4069 188.301 7.41992C188.398 7.42643 188.499 7.44271 188.604 7.46875C188.708 7.48828 188.799 7.51432 188.877 7.54688C188.955 7.57292 189.01 7.60221 189.043 7.63477C189.082 7.66732 189.108 7.70312 189.121 7.74219C189.141 7.78125 189.157 7.83659 189.17 7.9082C189.183 7.97331 189.193 8.07422 189.199 8.21094C189.206 8.34766 189.209 8.5332 189.209 8.76758Z" fill="#FF0000"/>
<path d="M301.967 8.695C301.889 8.47778 301.689 8.33333 301.466 8.33333H295.027L298.741 0.81C298.858 0.573333 298.798 0.283889 298.597 0.119444C298.5 0.0394445 298.383 0 298.266 0C298.142 0 298.018 0.0455556 297.918 0.135L294 3.66L286.185 10.6906C286.016 10.8422 285.956 11.0872 286.034 11.3044C286.111 11.5217 286.31 11.6667 286.533 11.6667H292.973L289.259 19.19C289.142 19.4267 289.202 19.7161 289.403 19.8806C289.5 19.9606 289.617 20 289.733 20C289.857 20 289.982 19.9544 290.081 19.865L294 16.34L301.815 9.30944C301.984 9.15778 302.044 8.91278 301.967 8.695Z" fill="#FF4141"/>
</svg>
